<svg xmlns="http://www.w3.org/2000/svg" width="18.3" height="17.3" viewBox="0 0 18.3 17.3">
  <path id="パス_1" data-name="パス 1" d="M1.56-12.18a6.989,6.989,0,0,1,1.08-.12,20.918,20.918,0,0,0,2.6-.36,17.585,17.585,0,0,0-1.2,1.34,10.071,10.071,0,0,0-2.2,6.04A6.572,6.572,0,0,0,4.44.18,7.068,7.068,0,0,0,8.32,1.24a6.545,6.545,0,0,0,5.42-2.66,8.859,8.859,0,0,0,1.5-5.32,13.8,13.8,0,0,0-.12-1.86,14.553,14.553,0,0,0,2.52,3.32l.46.46,1.68-3.32A14.325,14.325,0,0,1,14.6-15.7l-3.38.94a15.268,15.268,0,0,1,.94,5.62,11.675,11.675,0,0,1-.74,4.64A3.47,3.47,0,0,1,8.24-2.26c-1.76,0-2.86-1.22-2.86-3.16a8.419,8.419,0,0,1,2.38-5.42,9.991,9.991,0,0,1,2.54-2.18L8.6-16.06a23.787,23.787,0,0,1-6.1.62,5.49,5.49,0,0,1-1.02-.06Z" transform="translate(-1.48 16.06)" fill="#00bf8a"/>
</svg>
